# xmcd
#
# Track frame offsets:
#	150
#	18891
#	38045
#	61730
#	80010
#	97334
#	116042
#	133273
#	155286
#	169101
#	183685
#	203604
#	223084
#	237810
#
# Disc length: 3482 seconds
#
# Revision: 1
# Processed by: cddbd v1.4PL0 Copyright (c) Steve Scherf et al.
# Submitted via: audiograbber 1.81.03
#
DISCID=c10d980e
DTITLE=ICE-9 - Time Out
DYEAR=2003
DGENRE=
TTITLE0=Dancing Across The Floor
TTITLE1=Our Love Is Here To Stay
TTITLE2=Innocence
TTITLE3=Cruel Dance
TTITLE4=The Things I Do For Me
TTITLE5=Let It Shine
TTITLE6=Time Out
TTITLE7=Over The Rainbow
TTITLE8=I Just Do
TTITLE9=I Know
TTITLE10=Nothing More
TTITLE11=Bandwagon
TTITLE12=Big Love
TTITLE13=Over The Rainbow (Live)
EXTD=
EXTT0=
EXTT1=
EXTT2=
EXTT3=
EXTT4=
EXTT5=
EXTT6=
EXTT7=
EXTT8=
EXTT9=
EXTT10=
EXTT11=
EXTT12=
EXTT13=
PLAYORDER=
